<svg width="680" height="800" viewBox="0 0 680 800" fill="none" xmlns="http://www.w3.org/2000/svg">
<path d="M667.223 0H132.777C125.858 0 120.25 5.60625 120.25 12.5266V787.475C120.25 794.394 125.856 800.002 132.777 800.002H587.056C638.167 800.002 679.75 758.42 679.75 707.308V12.5266C679.75 5.60625 674.142 0 667.223 0Z" fill="#ECEDEF"/>
<path d="M493.528 707.306V653.861C493.528 646.944 487.92 641.334 481.002 641.334H12.5266C5.60937 641.334 0 646.942 0 653.861V707.306C0 758.5 41.5 800 92.6937 800H586.222C535.028 800 493.528 758.5 493.528 707.306Z" fill="#D9DCDF"/>
<path d="M413.361 93.5281H199.583C192.664 93.5281 187.056 99.1344 187.056 106.055V359.917C187.056 366.836 192.663 372.444 199.583 372.444H413.361C420.28 372.444 425.887 366.838 425.887 359.917V106.055C425.887 99.1344 420.281 93.5281 413.361 93.5281Z" fill="#D9DCDF"/>
<path d="M306.472 240.502C336.403 240.502 360.752 216.153 360.752 186.222C360.752 156.291 336.403 131.942 306.472 131.942C276.541 131.942 252.192 156.291 252.192 186.222C252.192 216.153 276.541 240.502 306.472 240.502Z" fill="#509FE8"/>
<path d="M333.194 240.502H279.75C258.073 240.502 240.502 258.073 240.502 279.75V372.444H372.444V279.75C372.442 258.073 354.87 240.502 333.194 240.502Z" fill="#509FE8"/>
<path d="M600.417 145.303H466.805C459.886 145.303 454.278 139.697 454.278 132.777C454.278 125.858 459.884 120.25 466.805 120.25H600.417C607.336 120.25 612.944 125.856 612.944 132.777C612.944 139.695 607.337 145.303 600.417 145.303Z" fill="#B3B9BF"/>
<path d="M600.417 212.108H466.805C459.886 212.108 454.278 206.502 454.278 199.581C454.278 192.663 459.884 187.055 466.805 187.055H600.417C607.336 187.055 612.944 192.661 612.944 199.581C612.944 206.502 607.337 212.108 600.417 212.108Z" fill="#B3B9BF"/>
<path d="M600.417 278.914H466.805C459.886 278.914 454.278 273.308 454.278 266.388C454.278 259.469 459.884 253.861 466.805 253.861H600.417C607.336 253.861 612.944 259.467 612.944 266.388C612.944 273.308 607.337 278.914 600.417 278.914Z" fill="#B3B9BF"/>
<path d="M600.417 345.72H466.805C459.886 345.72 454.278 340.114 454.278 333.194C454.278 326.273 459.884 320.667 466.805 320.667H600.417C607.336 320.667 612.944 326.273 612.944 333.194C612.944 340.114 607.337 345.72 600.417 345.72Z" fill="#B3B9BF"/>
<path d="M253.027 452.609H239.666C232.747 452.609 227.139 447.003 227.139 440.083C227.139 433.163 232.745 427.556 239.666 427.556H253.027C259.945 427.556 265.553 433.163 265.553 440.083C265.553 447.003 259.947 452.609 253.027 452.609Z" fill="#B3B9BF"/>
<path d="M576.228 452.609H311.662C301.877 452.609 293.945 447.003 293.945 440.083C293.945 433.163 301.875 427.556 311.662 427.556H576.228C586.014 427.556 593.945 433.163 593.945 440.083C593.945 447.003 586.014 452.609 576.228 452.609Z" fill="#B3B9BF"/>
<path d="M253.027 519.416H239.666C232.747 519.416 227.139 513.809 227.139 506.889C227.139 499.97 232.745 494.362 239.666 494.362H253.027C259.945 494.362 265.553 499.969 265.553 506.889C265.553 513.809 259.947 519.416 253.027 519.416Z" fill="#B3B9BF"/>
<path d="M576.228 519.416H311.662C301.877 519.416 293.945 513.809 293.945 506.889C293.945 499.97 301.875 494.362 311.662 494.362H576.228C586.014 494.362 593.945 499.969 593.945 506.889C593.945 513.809 586.014 519.416 576.228 519.416Z" fill="#B3B9BF"/>
<path d="M253.027 586.222H239.666C232.747 586.222 227.139 580.616 227.139 573.695C227.139 566.777 232.745 561.169 239.666 561.169H253.027C259.945 561.169 265.553 566.775 265.553 573.695C265.553 580.614 259.947 586.222 253.027 586.222Z" fill="#B3B9BF"/>
<path d="M576.228 586.222H311.662C301.877 586.222 293.945 580.616 293.945 573.695C293.945 566.777 301.875 561.169 311.662 561.169H576.228C586.014 561.169 593.945 566.775 593.945 573.695C593.945 580.614 586.014 586.222 576.228 586.222Z" fill="#B3B9BF"/>
</svg>
