<?xml version="1.0" encoding="iso-8859-1"?>
<!-- Uploaded to: SVG Repo, www.svgrepo.com, Generator: SVG Repo Mixer Tools -->
<svg height="800px" width="800px" version="1.1" id="Layer_1" xmlns="http://www.w3.org/2000/svg" xmlns:xlink="http://www.w3.org/1999/xlink" 
	 viewBox="0 0 512 512" xml:space="preserve">
<path style="fill:#E0E0E2;" d="M416.046,511.981H18.731C8.387,511.981,0,503.594,0,493.25V95.934
	c0-10.345,8.387-18.731,18.731-18.731h350.042c16.631,0,25.03,20.191,13.244,31.975L258.129,233.066l-16.974,37.756l37.756-16.974
	l123.89-123.888c11.757-11.759,31.975-3.427,31.975,13.244v350.043C434.777,503.594,426.392,511.981,416.046,511.981z"/>
<path style="fill:#C7C5CA;" d="M402.802,129.961l-123.89,123.888l-37.756,16.974l16.974-37.756l123.888-123.888
	c11.786-11.786,3.385-31.975-13.244-31.975H217.389v434.777h198.657c10.345,0,18.731-8.387,18.731-18.731V143.206
	C434.777,126.534,414.559,118.201,402.802,129.961z"/>
<path style="fill:#B28964;" d="M496.71,15.271c-20.336-20.336-53.425-20.336-73.761,0L229.521,208.697
	c-1.736,1.656-3.275,3.927-4.151,5.875l-38.61,85.882c-7.04,15.664,9.071,31.817,24.765,24.765l5.863-2.636l0,0l80.019-35.975
	c0.578-0.26,1.139-0.548,1.682-0.862c1.084-0.627,2.092-1.352,2.995-2.139c0.452-0.393,0.877-0.803,1.274-1.223L496.71,89.032
	C517.097,68.647,517.095,35.653,496.71,15.271z"/>
<path style="fill:#896746;" d="M495.792,14.398L189.758,320.433c5.046,5.752,13.465,8.519,21.768,4.786l5.863-2.636l80.019-35.975
	c0.578-0.26,1.139-0.548,1.682-0.862c1.084-0.627,2.092-1.352,2.995-2.139c0.452-0.393,0.877-0.803,1.274-1.223L496.71,89.032
	c20.387-20.385,20.385-53.379,0-73.761C496.411,14.97,496.098,14.689,495.792,14.398z"/>
</svg>