<svg width="453" height="99" viewBox="0 0 453 99" fill="none" xmlns="http://www.w3.org/2000/svg">
<path d="M73.6829 90H3.31731C1.48536 90 0 88.5339 0 86.7258V17.2742C0 15.4659 1.48536 14 3.31731 14H65.3107C68.2561 14 69.7436 17.5294 67.6562 19.5893L45.7153 41.2451L42.7092 47.845L49.3959 44.8779L71.3371 23.222C73.4193 21.1665 77 22.623 77 25.5371V86.7253C77.0002 88.5339 75.5152 90 73.6829 90Z" fill="#E0E0E2"/>
<path d="M71.2636 23.222L49.0374 44.8779L42.2639 47.845L45.309 41.2452L67.5349 19.5893C69.6493 17.5291 68.1422 14 65.1589 14H38V90H73.6396C75.4955 90 77 88.5339 77 86.7258V25.5373C77 22.623 73.3728 21.1664 71.2636 23.222Z" fill="#C7C5CA"/>
<path d="M88.2876 2.70606C84.6799 -0.90202 78.8098 -0.90202 75.2022 2.70606L40.8875 37.0243C40.5795 37.3181 40.3065 37.7211 40.1511 38.0667L33.3016 53.3041C32.0526 56.0833 34.9108 58.9492 37.6949 57.698L38.7351 57.2303L52.9307 50.8475C53.0332 50.8014 53.1327 50.7503 53.2291 50.6946C53.4214 50.5834 53.6002 50.4547 53.7604 50.3151C53.8406 50.2454 53.916 50.1726 53.9864 50.0981L88.2876 15.793C91.9043 12.1762 91.904 6.3223 88.2876 2.70606Z" fill="#B28964"/>
<path d="M88.1331 3L34 56.8581C34.8926 57.8704 36.3818 58.3573 37.8505 57.7003L38.8875 57.2364L53.0418 50.9053C53.144 50.8596 53.2432 50.8089 53.3393 50.7536C53.531 50.6433 53.7093 50.5157 53.8691 50.3772C53.949 50.308 54.0242 50.2359 54.0944 50.162L88.2955 16.1346C91.9017 12.5471 91.9013 6.7406 88.2955 3.15364C88.2426 3.10066 88.1872 3.05121 88.1331 3Z" fill="#896746"/>
<g filter="url(#filter0_d_0_1)">
<path d="M95.016 78V33.2H101.864L121.448 65.904H117.864L137.128 33.2H143.976L144.04 78H136.168L136.104 45.552H137.768L121.384 72.88H117.672L101.032 45.552H102.952V78H95.016ZM174.317 78.448C171.544 78.448 169.005 77.808 166.701 76.528C164.44 75.248 162.626 73.328 161.261 70.768C159.938 68.1653 159.277 64.88 159.277 60.912C159.277 56.9013 159.917 53.616 161.197 51.056C162.52 48.496 164.312 46.5973 166.573 45.36C168.834 44.08 171.416 43.44 174.317 43.44C177.688 43.44 180.653 44.1653 183.213 45.616C185.816 47.0667 187.864 49.0933 189.357 51.696C190.893 54.2987 191.661 57.3707 191.661 60.912C191.661 64.4533 190.893 67.5467 189.357 70.192C187.864 72.7947 185.816 74.8213 183.213 76.272C180.653 77.7227 177.688 78.448 174.317 78.448ZM155.373 90.416V43.824H162.989V51.888L162.733 60.976L163.373 70.064V90.416H155.373ZM173.421 71.6C175.341 71.6 177.048 71.1733 178.541 70.32C180.077 69.4667 181.293 68.2293 182.189 66.608C183.085 64.9867 183.533 63.088 183.533 60.912C183.533 58.6933 183.085 56.7947 182.189 55.216C181.293 53.5947 180.077 52.3573 178.541 51.504C177.048 50.6507 175.341 50.224 173.421 50.224C171.501 50.224 169.773 50.6507 168.237 51.504C166.701 52.3573 165.485 53.5947 164.589 55.216C163.693 56.7947 163.245 58.6933 163.245 60.912C163.245 63.088 163.693 64.9867 164.589 66.608C165.485 68.2293 166.701 69.4667 168.237 70.32C169.773 71.1733 171.501 71.6 173.421 71.6ZM199.248 78V30.512H207.248V78H199.248ZM233.108 78.448C229.609 78.448 226.495 77.7013 223.764 76.208C221.033 74.672 218.879 72.5813 217.3 69.936C215.721 67.2907 214.932 64.2827 214.932 60.912C214.932 57.4987 215.721 54.4907 217.3 51.888C218.879 49.2427 221.033 47.1733 223.764 45.68C226.495 44.1867 229.609 43.44 233.108 43.44C236.649 43.44 239.785 44.1867 242.516 45.68C245.289 47.1733 247.444 49.2213 248.98 51.824C250.559 54.4267 251.348 57.456 251.348 60.912C251.348 64.2827 250.559 67.2907 248.98 69.936C247.444 72.5813 245.289 74.672 242.516 76.208C239.785 77.7013 236.649 78.448 233.108 78.448ZM233.108 71.6C235.071 71.6 236.82 71.1733 238.356 70.32C239.892 69.4667 241.087 68.2293 241.94 66.608C242.836 64.9867 243.284 63.088 243.284 60.912C243.284 58.6933 242.836 56.7947 241.94 55.216C241.087 53.5947 239.892 52.3573 238.356 51.504C236.82 50.6507 235.092 50.224 233.172 50.224C231.209 50.224 229.46 50.6507 227.924 51.504C226.431 52.3573 225.236 53.5947 224.34 55.216C223.444 56.7947 222.996 58.6933 222.996 60.912C222.996 63.088 223.444 64.9867 224.34 66.608C225.236 68.2293 226.431 69.4667 227.924 70.32C229.46 71.1733 231.188 71.6 233.108 71.6ZM260.877 90.864C259.213 90.864 257.549 90.5867 255.885 90.032C254.221 89.4773 252.834 88.7093 251.724 87.728L254.924 81.84C255.735 82.5653 256.653 83.1413 257.677 83.568C258.701 83.9947 259.746 84.208 260.812 84.208C262.263 84.208 263.437 83.8453 264.333 83.12C265.229 82.3947 266.061 81.1787 266.829 79.472L268.812 74.992L269.453 74.032L282.381 43.824H290.061L274.061 80.752C272.994 83.312 271.799 85.3387 270.477 86.832C269.197 88.3253 267.746 89.3707 266.125 89.968C264.546 90.5653 262.797 90.864 260.877 90.864ZM267.917 79.216L252.492 43.824H260.812L273.357 73.328L267.917 79.216ZM316.252 78.64C312.839 78.64 309.66 78.0853 306.716 76.976C303.815 75.824 301.276 74.224 299.1 72.176C296.967 70.0853 295.303 67.632 294.108 64.816C292.913 62 292.316 58.928 292.316 55.6C292.316 52.272 292.913 49.2 294.108 46.384C295.303 43.568 296.988 41.136 299.164 39.088C301.34 36.9973 303.879 35.3973 306.78 34.288C309.681 33.136 312.86 32.56 316.316 32.56C319.985 32.56 323.335 33.2 326.364 34.48C329.393 35.7173 331.953 37.5733 334.044 40.048L328.668 45.104C327.047 43.3547 325.233 42.0533 323.228 41.2C321.223 40.304 319.047 39.856 316.7 39.856C314.353 39.856 312.199 40.24 310.236 41.008C308.316 41.776 306.631 42.864 305.18 44.272C303.772 45.68 302.663 47.344 301.852 49.264C301.084 51.184 300.7 53.296 300.7 55.6C300.7 57.904 301.084 60.016 301.852 61.936C302.663 63.856 303.772 65.52 305.18 66.928C306.631 68.336 308.316 69.424 310.236 70.192C312.199 70.96 314.353 71.344 316.7 71.344C319.047 71.344 321.223 70.9173 323.228 70.064C325.233 69.168 327.047 67.824 328.668 66.032L334.044 71.152C331.953 73.584 329.393 75.44 326.364 76.72C323.335 78 319.964 78.64 316.252 78.64ZM341.248 78V43.824H348.864V53.232L347.968 50.48C348.992 48.176 350.592 46.4267 352.768 45.232C354.987 44.0373 357.739 43.44 361.024 43.44V51.056C360.683 50.9707 360.363 50.928 360.064 50.928C359.765 50.8853 359.467 50.864 359.168 50.864C356.139 50.864 353.728 51.76 351.936 53.552C350.144 55.3013 349.248 57.9253 349.248 61.424V78H341.248ZM386.429 78V71.088L385.981 69.616V57.52C385.981 55.1733 385.277 53.36 383.869 52.08C382.461 50.7573 380.328 50.096 377.469 50.096C375.549 50.096 373.65 50.3947 371.773 50.992C369.938 51.5893 368.381 52.4213 367.101 53.488L363.965 47.664C365.8 46.256 367.976 45.2107 370.493 44.528C373.053 43.8027 375.698 43.44 378.429 43.44C383.378 43.44 387.197 44.6347 389.885 47.024C392.616 49.3707 393.981 53.0187 393.981 57.968V78H386.429ZM375.677 78.448C373.117 78.448 370.877 78.0213 368.957 77.168C367.037 76.272 365.544 75.056 364.477 73.52C363.453 71.9413 362.941 70.1707 362.941 68.208C362.941 66.288 363.389 64.56 364.285 63.024C365.224 61.488 366.738 60.272 368.829 59.376C370.92 58.48 373.693 58.032 377.149 58.032H387.069V63.344H377.725C374.994 63.344 373.16 63.792 372.221 64.688C371.282 65.5413 370.813 66.608 370.813 67.888C370.813 69.3387 371.389 70.4907 372.541 71.344C373.693 72.1973 375.293 72.624 377.341 72.624C379.304 72.624 381.053 72.176 382.589 71.28C384.168 70.384 385.298 69.0613 385.981 67.312L387.325 72.112C386.557 74.1173 385.17 75.6747 383.165 76.784C381.202 77.8933 378.706 78.448 375.677 78.448ZM405.336 78V41.904C405.336 38.32 406.381 35.4613 408.472 33.328C410.605 31.152 413.635 30.064 417.56 30.064C418.968 30.064 420.291 30.2133 421.528 30.512C422.808 30.8107 423.875 31.28 424.728 31.92L422.552 37.936C421.955 37.4667 421.272 37.1253 420.504 36.912C419.736 36.656 418.947 36.528 418.136 36.528C416.472 36.528 415.213 36.9973 414.36 37.936C413.507 38.832 413.08 40.1973 413.08 42.032V45.872L413.336 49.456V78H405.336ZM399.704 50.48V44.08H422.488V50.48H399.704ZM440.737 78.448C436.982 78.448 434.081 77.488 432.033 75.568C429.985 73.6053 428.961 70.7253 428.961 66.928V36.272H436.961V66.736C436.961 68.3573 437.366 69.616 438.177 70.512C439.03 71.408 440.204 71.856 441.697 71.856C443.489 71.856 444.982 71.3867 446.177 70.448L448.417 76.144C447.478 76.912 446.326 77.488 444.961 77.872C443.596 78.256 442.188 78.448 440.737 78.448ZM423.329 50.48V44.08H446.113V50.48H423.329Z" fill="#37383A"/>
</g>
<defs>
<filter id="filter0_d_0_1" x="91.016" y="30.064" width="361.401" height="68.8" filterUnits="userSpaceOnUse" color-interpolation-filters="sRGB">
<feFlood flood-opacity="0" result="BackgroundImageFix"/>
<feColorMatrix in="SourceAlpha" type="matrix" values="0 0 0 0 0 0 0 0 0 0 0 0 0 0 0 0 0 0 127 0" result="hardAlpha"/>
<feOffset dy="4"/>
<feGaussianBlur stdDeviation="2"/>
<feComposite in2="hardAlpha" operator="out"/>
<feColorMatrix type="matrix" values="0 0 0 0 0 0 0 0 0 0 0 0 0 0 0 0 0 0 0.25 0"/>
<feBlend mode="normal" in2="BackgroundImageFix" result="effect1_dropShadow_0_1"/>
<feBlend mode="normal" in="SourceGraphic" in2="effect1_dropShadow_0_1" result="shape"/>
</filter>
</defs>
</svg>
