<svg width="500" height="374" viewBox="0 0 500 374" fill="none" xmlns="http://www.w3.org/2000/svg">
<path d="M500 328.398H0V328.648H500V328.398Z" fill="#E6E6E6"/>
<path d="M124.826 343.528H91.704V343.778H124.826V343.528Z" fill="#E6E6E6"/>
<path d="M81.222 343.528H62.029V343.778H81.222V343.528Z" fill="#E6E6E6"/>
<path d="M210.554 347.208H191.362V347.458H210.554V347.208Z" fill="#E6E6E6"/>
<path d="M310.616 352.791H267.423V353.041H310.616V352.791Z" fill="#E6E6E6"/>
<path d="M258.52 352.791H252.187V353.041H258.52V352.791Z" fill="#E6E6E6"/>
<path d="M453.343 347.208H359.667V347.458H453.343V347.208Z" fill="#E6E6E6"/>
<path d="M237.014 283.8H43.915C40.768 283.8 38.207 281.239 38.207 278.092V6.66C38.207 3.513 40.768 0.952 43.915 0.952H237.014C240.16 0.952 242.721 3.513 242.721 6.66V278.092C242.721 281.239 240.16 283.8 237.014 283.8ZM43.915 1.203C40.905 1.203 38.457 3.651 38.457 6.661V278.093C38.457 281.103 40.905 283.551 43.915 283.551H237.014C240.023 283.551 242.471 281.103 242.471 278.093V6.66C242.471 3.651 240.023 1.202 237.014 1.202L43.915 1.203Z" fill="#E6E6E6"/>
<path d="M453.31 283.8H260.212C257.066 283.8 254.505 281.239 254.505 278.092V6.66C254.505 3.513 257.066 0.952 260.212 0.952H453.31C456.458 0.952 459.018 3.513 459.018 6.66V278.092C459.019 281.239 456.458 283.8 453.31 283.8ZM260.212 1.203C257.203 1.203 254.755 3.651 254.755 6.661V278.093C254.755 281.103 257.203 283.551 260.212 283.551H453.31C456.32 283.551 458.768 281.103 458.768 278.093V6.66C458.768 3.651 456.32 1.202 453.31 1.202L260.212 1.203Z" fill="#E6E6E6"/>
<path d="M267.399 242.977H245.41V330.211H267.399V242.977Z" fill="#E0E0E0"/>
<path d="M263.223 330.212H267.399V318.332H258.844L263.223 330.212Z" fill="#FAFAFA"/>
<path d="M171.044 242.977H149.055V330.211H171.044V242.977Z" fill="#E0E0E0"/>
<path d="M267.4 242.977H167.399V322.922H267.4V242.977Z" fill="#FAFAFA"/>
<path d="M263.773 246.907V268.058H171.025V246.907H263.773ZM264.159 246.521H170.638V268.445H264.159V246.521Z" fill="#E0E0E0"/>
<path d="M171.575 330.212H167.399V318.332H175.954L171.575 330.212Z" fill="#FAFAFA"/>
<path d="M215.187 257.482C215.187 258.703 216.177 259.694 217.399 259.694C218.62 259.694 219.611 258.704 219.611 257.482C219.611 256.261 218.621 255.27 217.399 255.27C216.178 255.271 215.187 256.261 215.187 257.482Z" fill="#E6E6E6"/>
<path d="M263.773 272.374V293.525H171.025V272.374H263.773ZM264.159 271.988H170.638V293.912H264.159V271.988Z" fill="#E0E0E0"/>
<path d="M215.187 282.949C215.187 284.17 216.177 285.161 217.399 285.161C218.62 285.161 219.611 284.171 219.611 282.949C219.611 281.727 218.621 280.737 217.399 280.737C216.178 280.738 215.187 281.728 215.187 282.949Z" fill="#E6E6E6"/>
<path d="M263.773 297.841V318.992H171.025V297.841H263.773ZM264.159 297.455H170.638V319.379H264.159V297.455Z" fill="#E0E0E0"/>
<path d="M215.187 308.417C215.187 309.638 216.177 310.629 217.399 310.629C218.62 310.629 219.611 309.639 219.611 308.417C219.611 307.195 218.621 306.205 217.399 306.205C216.178 306.205 215.187 307.195 215.187 308.417Z" fill="#E6E6E6"/>
<path d="M157.61 192.316H135.621V330.212H157.61V192.316Z" fill="#E0E0E0"/>
<path d="M153.434 330.212H157.61V318.332H149.055L153.434 330.212Z" fill="#FAFAFA"/>
<path d="M75.427 192.316H53.438V330.212H75.427V192.316Z" fill="#E0E0E0"/>
<path d="M157.61 192.316H71.783V322.922H157.61V192.316Z" fill="#FAFAFA"/>
<path d="M153.915 196.014V225.584H75.478V196.014H153.915ZM154.37 195.559H75.023V226.04H154.37V195.559Z" fill="#E0E0E0"/>
<path d="M153.915 229.178V307.614H116.554V229.178H153.915ZM154.37 228.723H116.098V308.071H154.37V228.723Z" fill="#E0E0E0"/>
<path d="M112.839 229.178V307.614H75.478V229.178H112.839ZM113.295 228.723H75.023V308.071H113.295V228.723Z" fill="#E0E0E0"/>
<path d="M75.959 330.212H71.783V318.332H80.338L75.959 330.212Z" fill="#FAFAFA"/>
<path d="M112.485 210.799C112.485 212.021 113.475 213.011 114.697 213.011C115.918 213.011 116.909 212.021 116.909 210.799C116.909 209.578 115.919 208.587 114.697 208.587C113.475 208.588 112.485 209.578 112.485 210.799Z" fill="#E6E6E6"/>
<path d="M120.403 266.526C120.403 267.747 121.393 268.738 122.615 268.738C123.837 268.738 124.827 267.748 124.827 266.526C124.827 265.305 123.837 264.314 122.615 264.314C121.393 264.314 120.403 265.304 120.403 266.526Z" fill="#E6E6E6"/>
<path d="M104.566 266.526C104.566 267.747 105.556 268.738 106.778 268.738C107.999 268.738 108.99 267.748 108.99 266.526C108.99 265.305 108 264.314 106.778 264.314C105.557 264.314 104.566 265.304 104.566 266.526Z" fill="#E6E6E6"/>
<path d="M102.075 153.869H92.799C92.799 153.869 94.409 162.444 94.409 167.49C94.409 172.536 87.353 192.316 97.437 192.316C107.52 192.316 100.465 172.535 100.465 167.49C100.464 162.443 102.075 153.869 102.075 153.869Z" fill="#E0E0E0"/>
<path d="M66.803 174.148V180.175C66.803 186.852 72.266 192.315 78.944 192.315H84.971C91.648 192.315 97.111 186.852 97.111 180.175V174.148H66.803Z" fill="#F5F5F5"/>
<path d="M195.667 230.265C195.667 237.257 203.498 242.978 213.069 242.978H221.708C231.28 242.978 239.111 237.257 239.111 230.265H195.667Z" fill="#E0E0E0"/>
<path d="M424.606 220.03C419.366 224.307 412.134 232.139 405.507 243.158C401.093 250.496 398.433 258.185 397.265 268.343C397.29 256.844 397.326 244.489 397.366 232.829C398.697 229.828 401.737 222.913 403.918 217.449C411.195 199.218 413.905 194.735 420.45 179.01C429.179 158.036 438.124 133.149 435.563 135.138C430.344 139.19 410.343 176.642 408.181 182.003C400.745 200.443 398.674 213.884 397.387 226.855C397.427 215.903 397.47 205.847 397.512 198.088C397.646 172.78 398.077 164.612 398.287 162.093C399.096 160.813 400.052 159.321 400.608 158.517C405.306 151.724 407.118 145.937 411.545 135.805C417.818 121.448 423.22 95.958 421.641 97.244C415.065 102.597 409.878 114.106 403.062 128.771C396.247 143.436 398.195 151.869 396.843 164.394C396.559 166.852 396.342 176.127 396.185 188.982C394.417 175.287 391.101 166.262 385.051 158.061C377.609 147.974 370.41 141.16 365.128 137.601C359.846 134.043 374.249 158.821 381.137 169.636C387.271 179.267 392.921 187.766 396.107 196.136C395.938 213.558 395.86 235.62 395.86 256.156C394.28 246.81 391.7 236.747 388.258 228.954C384.122 219.591 377.759 205.23 372.694 200.359C371.477 199.189 377.99 227.119 382.169 234.546C386.349 241.973 389.417 248.972 392.048 253.182C392.662 254.164 394.698 257.952 395.861 260.13C395.872 285.2 396 307.322 396.218 314.852H397.301C397.227 312.909 397.215 300.156 397.238 283.277C399.846 274.112 405.811 263.654 410.733 254.113C416.106 243.697 429.847 215.752 424.606 220.03Z" fill="#E0E0E0"/>
<path d="M412.44 330.212H381.097L378.731 299.488H414.806L412.44 330.212Z" fill="#F0F0F0"/>
<path d="M417.142 303.068H376.395L375.228 292.702H418.309L417.142 303.068Z" fill="#F5F5F5"/>
<path d="M124.26 21.497H68.208V83.046H124.26V21.497Z" fill="#E0E0E0"/>
<path d="M130.331 21.497H72.433V83.046H130.331V21.497Z" fill="#F5F5F5"/>
<path d="M125.48 78.1953L125.48 26.3473L77.2827 26.3473V78.1953H125.48Z" fill="white"/>
<path d="M113.798 65.6293V38.9153L88.9657 38.9153V65.6293H113.798Z" fill="#F5F5F5"/>
<path d="M410.051 28.672H357.981V85.849H410.051V28.672Z" fill="#E0E0E0"/>
<path d="M415.691 28.672H361.906V85.849H415.691V28.672Z" fill="#F5F5F5"/>
<path d="M411.185 81.3435V33.1785L366.412 33.1785V81.3435H411.185Z" fill="white"/>
<path d="M388.798 71.229C396.512 71.229 402.766 64.9753 402.766 57.261C402.766 49.5467 396.512 43.293 388.798 43.293C381.084 43.293 374.83 49.5467 374.83 57.261C374.83 64.9753 381.084 71.229 388.798 71.229Z" fill="#F5F5F5"/>
<path d="M182.489 58.197H140.909V103.855H182.489V58.197Z" fill="#E0E0E0"/>
<path d="M186.994 58.197H144.044V103.855H186.994V58.197Z" fill="#F5F5F5"/>
<path d="M183.396 100.257V61.7955L147.643 61.7955V100.257H183.396Z" fill="white"/>
<path d="M165.519 71.303L155.741 88.24H175.297L165.519 71.303Z" fill="#F5F5F5"/>
<path d="M250 373.561C357.082 373.561 443.889 368.492 443.889 362.238C443.889 355.984 357.082 350.915 250 350.915C142.918 350.915 56.111 355.984 56.111 362.238C56.111 368.492 142.918 373.561 250 373.561Z" fill="#F5F5F5"/>
<path d="M349.246 109.432L339.327 105.41C339.327 105.41 326.237 129.283 322.488 130.488C317.386 132.128 306.835 136.687 300.565 137.541C299.72 138.529 298.326 141.645 298.459 142.781C306.871 145.586 325.351 141.861 329.307 138.924C338.325 132.225 349.246 109.432 349.246 109.432Z" fill="#E58A7B"/>
<path d="M352.3 104.015C354.145 110.854 344.126 124.591 344.126 124.591L330.964 117.208C330.964 117.208 333.418 111.561 336.422 105.81C341.273 96.523 350.193 96.21 352.3 104.015Z" fill="#407BFF"/>
<path opacity="0.2" d="M352.3 104.015C354.145 110.854 344.126 124.591 344.126 124.591L330.964 117.208C330.964 117.208 333.418 111.561 336.422 105.81C341.273 96.523 350.193 96.21 352.3 104.015Z" fill="black"/>
<path opacity="0.2" d="M336.212 120.148L341.381 123.046L342.285 107.18C339.285 109.492 337.157 116.449 336.212 120.148Z" fill="black"/>
<path d="M343.662 98.863C343.662 98.863 333.443 121.599 339.401 163.94C351.535 163.94 373.767 163.94 379.671 163.94C380.311 157.758 378.195 127.602 385.865 98.475C385.865 98.475 379.043 97.09 372.484 96.773C367.353 96.525 359.913 96.361 355.365 96.774C349.369 97.318 343.662 98.863 343.662 98.863Z" fill="#407BFF"/>
<path opacity="0.2" d="M343.662 98.863C343.662 98.863 333.443 121.599 339.401 163.94C351.535 163.94 373.767 163.94 379.671 163.94C380.311 157.758 378.195 127.602 385.865 98.475C385.865 98.475 379.043 97.09 372.484 96.773C367.353 96.525 359.913 96.361 355.365 96.774C349.369 97.318 343.662 98.863 343.662 98.863Z" fill="black"/>
<path d="M334.323 363.142C334.26 364.216 349.528 365.086 368.425 365.086C387.322 365.086 402.692 364.216 402.755 363.142C402.818 362.068 387.55 361.198 368.653 361.198C349.756 361.197 334.386 362.068 334.323 363.142Z" fill="#E8ECF1"/>
<path d="M362.141 336.158L354.975 338.919L361.12 354.868L368.286 352.107L362.141 336.158Z" fill="#E58A7B"/>
<path d="M393.051 355.454H385.522L382.76 338.018H390.289L393.051 355.454Z" fill="#E58A7B"/>
<path d="M385.038 354.582H393.497C393.805 354.582 394.059 354.796 394.108 355.096L395.203 361.788C395.317 362.482 394.733 363.139 394.022 363.127C391.072 363.076 389.647 362.903 385.928 362.903C383.64 362.903 378.911 363.141 375.75 363.141C372.659 363.141 372.36 360.016 373.671 359.733C379.546 358.464 381.834 356.714 383.789 355.045C384.141 354.744 384.588 354.582 385.038 354.582Z" fill="#263238"/>
<path d="M359.972 351.946L367.993 349.614C368.293 349.527 368.602 349.656 368.735 349.925L371.707 355.921C372.015 356.542 371.651 357.322 370.955 357.512C368.05 358.305 366.097 358.801 362.46 359.858C359.947 360.588 357.391 361.778 354.908 362.57C353.189 363.118 349.152 363.14 347.061 363.14C343.97 363.14 343.281 359.881 344.606 359.732C347.959 359.356 348.409 359.53 350.26 358.602C353.32 357.067 355.687 355.796 358.336 353.021C358.798 352.539 359.339 352.13 359.972 351.946Z" fill="#263238"/>
<path d="M301.833 137.469L293.548 133.983L290.137 143.161C290.137 143.161 294.918 144.028 300.378 143.161L301.833 137.469Z" fill="#E58A7B"/>
<path d="M287.391 133.758L287.172 139.865L290.137 143.161L293.548 133.983L287.391 133.758Z" fill="#E58A7B"/>
<path d="M362.168 336.14L355.001 338.906L358.173 347.126L365.341 344.36L362.168 336.14Z" fill="#CF6F64"/>
<path d="M390.291 338.023H382.759L384.187 347.01H391.719L390.291 338.023Z" fill="#CF6F64"/>
<path opacity="0.2" d="M338.123 152.487C338.267 154.296 338.442 156.145 338.657 158.046L368.602 148.325C373.278 146.927 377.347 143.988 380.122 139.971C380.235 137.299 380.389 134.494 380.615 131.565C380.718 130.137 380.841 128.677 380.975 127.198C381.119 125.657 381.283 124.084 381.468 122.502L338.123 152.487Z" fill="black"/>
<path d="M347.9 119.688L346.88 119.567C347.474 114.577 351.199 110.633 355.134 110.727L355.104 111.755C351.707 111.656 348.434 115.213 347.9 119.688Z" fill="white"/>
<path d="M353.228 128.922C353.172 128.922 353.116 128.921 353.059 128.92L353.089 127.892C356.528 128.018 359.759 124.433 360.293 119.958L361.313 120.08C360.727 124.999 357.12 128.922 353.228 128.922Z" fill="white"/>
<path d="M371.918 77.497C370.515 83.005 368.846 93.097 372.484 96.772C372.484 96.772 369.943 102.359 359.708 102.359C350.355 102.359 355.365 96.772 355.365 96.772C361.593 95.305 361.702 90.748 360.883 86.468L371.918 77.497Z" fill="#E58A7B"/>
<path d="M367.419 81.158L360.888 86.465C361.085 87.478 361.225 88.505 361.238 89.503C363.147 91.404 366.979 86.588 367.372 84.131C367.567 82.907 367.585 81.729 367.419 81.158Z" fill="#CF6F64"/>
<path d="M349.664 77.429C350.621 79.143 352.31 80.21 353.906 80.565C356.307 81.1 357.514 78.891 356.852 76.668C356.256 74.667 354.289 71.978 351.876 72.439C349.499 72.894 348.569 75.469 349.664 77.429Z" fill="#CF6F64"/>
<path d="M353.626 59.8C349.886 61.514 348.568 76.371 353.27 78.568C357.972 80.764 360.71 56.555 353.626 59.8Z" fill="#263238"/>
<path d="M373.059 69.208C372.164 76.666 372.017 81.055 368.026 84.883C362.022 90.641 353.016 87.226 351.673 79.781C350.464 73.08 352.131 62.009 359.606 59.041C366.97 56.117 373.954 61.75 373.059 69.208Z" fill="#E58A7B"/>
<path d="M360.774 63.665C366.306 62.25 370.378 61.286 368.925 65.904C366.989 72.056 364.667 78.016 367.782 78.294C369.676 78.463 378.077 74.898 377.01 71.294C376.081 68.154 379.986 67.307 380.706 65.706C383.299 59.94 375.89 60.689 377.208 57.2C378.492 53.803 371.239 48.062 367.22 50.867C360.715 55.408 349.535 55.343 355.413 47.895C359.622 42.561 352.112 43.656 352.112 43.656C352.112 43.656 356.648 46.347 349.013 50.507C340.919 54.915 348.328 66.849 360.774 63.665Z" fill="#263238"/>
<path d="M375.946 77.429C374.787 79.143 372.974 80.21 371.336 80.565C368.872 81.1 367.925 78.891 368.847 76.668C369.678 74.667 371.96 71.978 374.319 72.439C376.642 72.894 377.27 75.469 375.946 77.429Z" fill="#E58A7B"/>
<path d="M339.401 163.94C339.401 163.94 332.642 224.437 332.114 247.397C331.566 271.279 355.022 345.791 355.022 345.791L367.033 340.747C367.033 340.747 353.048 272.674 354.991 249.219C357.109 223.65 365.872 163.939 365.872 163.939H339.401V163.94Z" fill="#407BFF"/>
<path opacity="0.2" d="M356.199 180.551C350.814 191.731 354.442 213.835 357.36 226.938C358.47 217.689 359.785 207.65 361.039 198.36C360.916 184.076 359.806 173.05 356.199 180.551Z" fill="black"/>
<path d="M366.49 336.826C366.546 336.803 367.914 340.654 367.914 340.654L354.07 346.467L351.889 342.412L366.49 336.826Z" fill="#407BFF"/>
<path d="M353.686 163.94C353.686 163.94 358.857 221.478 362.284 243.034C366.037 266.639 380.779 345.27 380.779 345.27H394.569C394.569 345.27 386.306 268.545 384.745 245.174C383.051 219.808 379.67 163.94 379.67 163.94H353.686Z" fill="#407BFF"/>
<path d="M394.78 341.677C394.839 341.677 395.241 345.531 395.241 345.531H380.084L379.002 341.107L394.78 341.677Z" fill="#407BFF"/>
<path opacity="0.2" d="M389.497 337.122C389.432 337.122 389.377 337.073 389.37 337.008C389.295 336.31 381.844 267.041 380.442 246.043C378.921 223.256 375.862 172.731 375.831 172.223C375.827 172.152 375.881 172.091 375.951 172.087C375.954 172.087 375.957 172.087 375.959 172.087C376.026 172.087 376.084 172.14 376.088 172.208C376.118 172.715 379.177 223.24 380.699 246.025C382.1 267.019 389.55 336.283 389.625 336.98C389.633 337.051 389.582 337.114 389.512 337.121C389.506 337.122 389.501 337.122 389.497 337.122Z" fill="black"/>
<path d="M361.624 71.293C361.588 71.9 361.238 72.393 360.841 72.393C360.444 72.393 360.151 71.901 360.187 71.293C360.222 70.686 360.573 70.193 360.97 70.193C361.367 70.193 361.66 70.686 361.624 71.293Z" fill="#263238"/>
<path d="M354.76 71.293C354.724 71.9 354.374 72.393 353.977 72.393C353.58 72.393 353.287 71.901 353.323 71.293C353.359 70.686 353.709 70.193 354.106 70.193C354.503 70.193 354.796 70.686 354.76 71.293Z" fill="#263238"/>
<path d="M356.924 71.595C356.924 71.595 355.338 75.099 353.718 76.789C354.734 77.792 356.587 77.333 356.587 77.333L356.924 71.595Z" fill="#DF5753"/>
<path d="M357.099 79.881C357.001 79.881 356.925 79.801 356.931 79.703C356.937 79.605 357.022 79.525 357.12 79.525C359.786 79.525 361.139 77.663 361.153 77.644C361.213 77.562 361.325 77.538 361.403 77.592C361.482 77.646 361.499 77.756 361.44 77.839C361.38 77.921 359.956 79.881 357.099 79.881Z" fill="#263238"/>
<path d="M362.845 69.446C362.742 69.486 362.626 69.48 362.53 69.419C361.218 68.593 359.995 69.147 359.983 69.154C359.815 69.24 359.592 69.165 359.517 68.987C359.442 68.809 359.53 68.596 359.712 68.511C359.777 68.48 361.308 67.785 362.936 68.81C363.099 68.913 363.139 69.132 363.027 69.3C362.981 69.368 362.916 69.418 362.845 69.446Z" fill="#263238"/>
<path d="M352.106 67.451C352.057 67.437 352.009 67.412 351.97 67.374C351.83 67.244 351.83 67.019 351.97 66.871C353.366 65.396 354.984 65.621 355.052 65.631C355.242 65.652 355.369 65.841 355.328 66.036C355.287 66.23 355.099 66.364 354.907 66.336C354.853 66.328 353.59 66.167 352.475 67.344C352.376 67.45 352.231 67.487 352.106 67.451Z" fill="#263238"/>
<path d="M389.73 108.317L379.327 105.548C379.327 105.548 369.127 130.656 365.524 132.295C360.621 134.526 348.207 142.242 342.931 145.963C342.638 147.207 342.868 150.523 343.532 151.426C352.503 149.796 369.762 143.161 373.361 139.788C381.567 132.099 389.73 108.317 389.73 108.317Z" fill="#E58A7B"/>
<path d="M382.471 355.897C381.898 355.897 381.368 355.799 381.044 355.514C380.787 355.287 380.682 354.969 380.731 354.571C380.767 354.274 380.932 354.133 381.066 354.067C381.915 353.641 384.264 355.131 384.529 355.303C384.587 355.342 384.615 355.413 384.6 355.484C384.584 355.554 384.528 355.611 384.457 355.627C383.926 355.753 383.167 355.897 382.471 355.897ZM381.444 354.339C381.351 354.339 381.272 354.353 381.21 354.384C381.161 354.409 381.102 354.455 381.086 354.593C381.051 354.877 381.117 355.089 381.29 355.241C381.681 355.588 382.661 355.634 383.955 355.376C383.133 354.884 382.021 354.339 381.444 354.339Z" fill="#407BFF"/>
<path d="M384.415 355.632C384.386 355.632 384.357 355.625 384.331 355.611C383.576 355.187 382.167 353.538 382.376 352.698C382.413 352.546 382.541 352.283 382.971 352.231C383.252 352.196 383.501 352.274 383.717 352.459C384.55 353.174 384.602 355.347 384.604 355.439C384.606 355.504 384.571 355.567 384.514 355.602C384.483 355.622 384.449 355.632 384.415 355.632ZM383.075 352.58C383.049 352.58 383.022 352.583 382.994 352.586C382.761 352.614 382.734 352.721 382.723 352.766C382.599 353.262 383.486 354.509 384.226 355.097C384.175 354.462 384.009 353.195 383.476 352.737C383.353 352.631 383.222 352.58 383.075 352.58Z" fill="#407BFF"/>
<path d="M355.917 354.653C355.181 354.831 354.479 354.884 354.031 354.641C353.746 354.487 353.582 354.229 353.544 353.878C353.521 353.668 353.592 353.485 353.747 353.348C354.553 352.631 357.815 353.402 358.185 353.492C358.257 353.51 358.308 353.572 358.311 353.648C358.314 353.724 358.27 353.795 358.199 353.828C357.594 354.102 356.734 354.455 355.917 354.653ZM354.291 353.465C354.154 353.498 354.046 353.545 353.975 353.608C353.912 353.664 353.889 353.728 353.899 353.82C353.925 354.058 354.029 354.224 354.215 354.326C354.746 354.615 355.979 354.386 357.566 353.722C356.451 353.488 354.993 353.294 354.291 353.465Z" fill="#407BFF"/>
<path d="M358.166 353.838C358.141 353.844 358.116 353.844 358.091 353.841C357.122 353.661 355.052 352.511 355.033 351.65C355.028 351.449 355.123 351.173 355.597 351.009C355.941 350.88 356.295 350.906 356.627 351.069C357.714 351.605 358.282 353.525 358.306 353.606C358.323 353.666 358.307 353.732 358.263 353.781C358.236 353.81 358.202 353.829 358.166 353.838ZM355.801 351.312C355.767 351.32 355.732 351.332 355.696 351.343C355.386 351.452 355.389 351.579 355.389 351.621C355.401 352.137 356.838 353.087 357.853 353.407C357.651 352.855 357.165 351.741 356.453 351.39C356.239 351.284 356.024 351.258 355.801 351.312Z" fill="#407BFF"/>
<path d="M343.778 145.372L333.35 150.172L332.14 153.114L335.994 155.707C335.994 155.707 343.186 154.924 345.235 150.303L343.778 145.372Z" fill="#E58A7B"/>
<path d="M344.222 151.596C343.57 147.722 342.296 145.955 342.284 145.938L343.928 144.705C343.992 144.79 345.503 146.83 346.249 151.255L344.222 151.596Z" fill="#263238"/>
<path d="M345.998 146.791C346.336 147.628 345.793 148.636 344.784 149.044C343.775 149.452 342.684 149.104 342.346 148.267C342.008 147.43 342.551 146.422 343.56 146.014C344.568 145.607 345.66 145.954 345.998 146.791Z" fill="#263238"/>
<path d="M326.304 154.048L327.689 155.451L337.046 151.449L333.35 150.173L326.304 154.048Z" fill="#E58A7B"/>
<path opacity="0.2" d="M366.49 336.826C366.546 336.803 367.914 340.654 367.914 340.654L354.07 346.467L351.889 342.412L366.49 336.826Z" fill="black"/>
<path opacity="0.2" d="M394.78 341.677C394.839 341.677 395.241 345.531 395.241 345.531H380.084L379.002 341.107L394.78 341.677Z" fill="black"/>
<path d="M392.441 105.439C395.192 114.306 384.481 126.419 384.481 126.419L369.633 120.359C369.633 120.359 371.725 113.917 375.706 105.286C380.232 95.477 389.664 96.49 392.441 105.439Z" fill="#407BFF"/>
<path opacity="0.2" d="M392.441 105.439C395.192 114.306 384.481 126.419 384.481 126.419L369.633 120.359C369.633 120.359 371.725 113.917 375.706 105.286C380.232 95.477 389.664 96.49 392.441 105.439Z" fill="black"/>
<path d="M244.874 16.57H238.487V17.598H244.874V16.57Z" fill="#407BFF"/>
<path d="M327.603 57.3305L326.83 74.4893L327.856 74.5355L328.629 57.3767L327.603 57.3305Z" fill="#407BFF"/>
<path d="M325.613 21.194H207.614L196.629 266.913H314.628L325.613 21.194Z" fill="#407BFF"/>
<path opacity="0.56" d="M322.09 24.566H204.091L193.107 270.285H311.106L322.09 24.566Z" fill="#FAFAFA"/>
<path opacity="0.07" d="M318.567 27.938H200.569L189.584 273.657H307.583L318.567 27.938Z" fill="#407BFF"/>
<path d="M309.136 135.106H208.419L207.578 153.912H308.296L309.136 135.106Z" fill="white"/>
<path d="M262.815 121.39H208.032L207.656 129.804H262.438L262.815 121.39Z" fill="#407BFF"/>
<path d="M304.868 185.849H204.15L203.309 204.655H304.027L304.868 185.849Z" fill="white"/>
<path opacity="0.47" d="M284.398 230.036H216.669L215.662 252.575H283.39L284.398 230.036Z" fill="#407BFF"/>
<path d="M279.868 256.066H212.14C212.108 256.066 212.077 256.052 212.054 256.029C212.032 256.006 212.02 255.974 212.022 255.942L213.03 233.403C213.032 233.339 213.085 233.289 213.148 233.289H280.876C280.908 233.289 280.939 233.303 280.962 233.326C280.984 233.349 280.996 233.381 280.994 233.413L279.986 255.952C279.984 256.016 279.931 256.066 279.868 256.066ZM212.264 255.828H279.754L280.75 233.527H213.26L212.264 255.828Z" fill="white"/>
<path d="M250.978 172.134H205.763L205.387 180.548H250.601L250.978 172.134Z" fill="#407BFF"/>
<path d="M283.106 74.379C282.854 80.01 280.813 85.21 277.541 89.434C272.6 95.836 264.861 99.998 256.342 99.998C247.823 99.998 240.466 95.836 236.098 89.434C233.204 85.21 231.628 80.011 231.88 74.379C232.513 60.229 244.493 48.761 258.633 48.761C272.783 48.76 283.738 60.229 283.106 74.379Z" fill="white"/>
<path d="M285.515 54.123C285.448 55.619 284.906 57.001 284.036 58.123C282.723 59.824 280.667 60.93 278.403 60.93C276.139 60.93 274.185 59.824 273.024 58.123C272.255 57.001 271.836 55.619 271.903 54.123C272.071 50.363 275.255 47.316 279.012 47.316C282.772 47.316 285.683 50.363 285.515 54.123Z" fill="#407BFF"/>
<path d="M220.265 144.509C220.191 146.173 218.781 147.522 217.117 147.522C215.453 147.522 214.164 146.173 214.238 144.509C214.312 142.845 215.722 141.496 217.386 141.496C219.051 141.495 220.34 142.845 220.265 144.509Z" fill="#263238"/>
<path d="M233.752 144.509C233.678 146.173 232.268 147.522 230.604 147.522C228.94 147.522 227.651 146.173 227.725 144.509C227.799 142.845 229.209 141.496 230.873 141.496C232.537 141.496 233.827 142.845 233.752 144.509Z" fill="#263238"/>
<path d="M247.24 144.509C247.166 146.173 245.756 147.522 244.092 147.522C242.428 147.522 241.139 146.173 241.213 144.509C241.287 142.845 242.697 141.496 244.361 141.496C246.025 141.495 247.314 142.845 247.24 144.509Z" fill="#263238"/>
<path d="M215.997 195.252C215.923 196.916 214.513 198.265 212.849 198.265C211.185 198.265 209.896 196.916 209.97 195.252C210.044 193.588 211.454 192.238 213.118 192.238C214.782 192.239 216.071 193.588 215.997 195.252Z" fill="#263238"/>
<path d="M229.484 195.252C229.41 196.916 228 198.265 226.336 198.265C224.672 198.265 223.383 196.916 223.457 195.252C223.531 193.588 224.941 192.238 226.605 192.238C228.27 192.239 229.558 193.588 229.484 195.252Z" fill="#263238"/>
<path d="M242.971 195.252C242.897 196.916 241.487 198.265 239.823 198.265C238.159 198.265 236.87 196.916 236.944 195.252C237.018 193.588 238.428 192.238 240.092 192.238C241.756 192.238 243.046 193.588 242.971 195.252Z" fill="#263238"/>
<path d="M255.459 195.252C255.385 196.916 253.975 198.265 252.311 198.265C250.647 198.265 249.358 196.916 249.432 195.252C249.506 193.588 250.916 192.238 252.58 192.238C254.244 192.239 255.533 193.588 255.459 195.252Z" fill="#263238"/>
<path d="M269.946 195.252C269.872 196.916 268.462 198.265 266.798 198.265C265.134 198.265 263.845 196.916 263.919 195.252C263.993 193.588 265.403 192.238 267.067 192.238C268.731 192.239 270.02 193.588 269.946 195.252Z" fill="#263238"/>
<path d="M268.236 65.816C267.98 71.538 263.134 76.177 257.411 76.177C251.689 76.177 247.257 71.538 247.513 65.816C247.769 60.093 252.615 55.455 258.338 55.455C264.06 55.455 268.492 60.094 268.236 65.816Z" fill="#407BFF"/>
<path d="M277.541 89.433C272.6 95.835 264.861 99.997 256.342 99.997C247.823 99.997 240.466 95.835 236.098 89.433C240.959 84.593 248.653 81.449 257.172 81.449C265.7 81.449 273.113 84.593 277.541 89.433Z" fill="#407BFF"/>
<path opacity="0.1" d="M268.236 65.816C267.98 71.538 263.134 76.177 257.411 76.177C251.689 76.177 247.257 71.538 247.513 65.816C247.769 60.093 252.615 55.455 258.338 55.455C264.06 55.455 268.492 60.094 268.236 65.816Z" fill="white"/>
<path opacity="0.1" d="M277.541 89.433C272.6 95.835 264.861 99.997 256.342 99.997C247.823 99.997 240.466 95.835 236.098 89.433C240.959 84.593 248.653 81.449 257.172 81.449C265.7 81.449 273.113 84.593 277.541 89.433Z" fill="white"/>
<path d="M130.407 158.443C129.46 160.52 128.463 162.805 127.588 165.034C126.706 167.284 125.826 169.536 125.059 171.82C123.569 176.388 122.172 180.998 121.484 185.621L121.256 187.093C121.238 187.27 121.251 187.522 121.329 187.838C121.475 188.473 121.871 189.323 122.428 190.157C123.554 191.844 125.15 193.552 126.871 195.138C128.588 196.749 130.453 198.29 132.391 199.753C134.31 201.229 136.334 202.674 138.314 204.028L136.45 207.537C131.692 205.457 127.261 202.97 122.969 199.849C120.859 198.241 118.775 196.51 116.929 194.17C116.019 192.99 115.124 191.657 114.538 189.897C114.254 189.019 114.056 188.026 114.055 186.952C114.062 186.705 114.075 186.358 114.092 186.192L114.141 185.695L114.241 184.701C114.785 179.4 115.959 174.305 117.506 169.363C118.286 166.895 119.118 164.452 120.068 162.055C121.038 159.642 121.995 157.326 123.208 154.897L130.407 158.443Z" fill="#E58A7B"/>
<path d="M136.914 203.432L143.98 199.847L142.155 207.613C142.155 207.613 137.303 208.968 135.046 206.614L136.914 203.432Z" fill="#E58A7B"/>
<path d="M150.451 201.122L148.571 207.542L142.154 207.614L143.98 199.847L150.451 201.122Z" fill="#E58A7B"/>
<path d="M160.432 121.001C160.432 121.001 161.045 123.255 162.017 124.954C161.182 125.734 160.432 125.463 160.432 125.463V121.001Z" fill="#DF5753"/>
<path d="M160.223 121.06C160.637 121.06 160.972 120.547 160.972 119.914C160.972 119.281 160.637 118.768 160.223 118.768C159.809 118.768 159.474 119.281 159.474 119.914C159.474 120.547 159.809 121.06 160.223 121.06Z" fill="#263238"/>
<path d="M160.04 118.803L161.56 118.365C161.56 118.365 160.78 119.553 160.04 118.803Z" fill="#263238"/>
<path d="M140.897 128.336C141.81 132.991 142.721 141.521 139.463 144.627C139.463 144.627 140.736 149.349 149.386 149.349C158.898 149.349 153.932 144.627 153.932 144.627C148.741 143.387 148.875 139.536 149.779 135.919L140.897 128.336Z" fill="#E58A7B"/>
<path d="M138.373 117.742C138.85 125.514 138.886 128.813 142.812 132.802C148.716 138.802 158.157 136.516 160.012 128.759C161.681 121.776 160.62 110.24 153.013 107.147C145.517 104.1 137.895 109.97 138.373 117.742Z" fill="#E58A7B"/>
<path d="M139.139 108.948C135.242 110.369 130.043 109.312 132.083 121.341C134.243 134.078 130.918 138.268 130.918 138.268C130.918 138.268 145.71 141.419 160.81 138.08C160.81 138.08 156.2 130.018 157.494 124.135C159.144 116.632 157.836 113.859 157.836 113.859C157.836 113.859 144.619 106.95 139.139 108.948Z" fill="#263238"/>
<path d="M155.64 121.792C155.624 123.332 156.164 124.883 156.864 125.96C157.917 127.581 159.167 126.921 159.48 125.238C159.762 123.724 159.553 121.056 158.204 120.021C156.876 119.003 155.659 120.032 155.64 121.792Z" fill="#E58A7B"/>
<path d="M135.754 110.309C134.629 107.164 139.973 102.327 151.271 104.339C162.569 106.351 163.065 115.747 163.065 115.747L160.779 113.034L160.882 115.891L149.271 118.122L135.754 110.309Z" fill="#263238"/>
<path d="M136.712 145.156C136.556 144.195 137.202 143.29 138.162 143.132C141.68 142.551 149.676 141.375 153.701 141.932C156.691 142.346 157.482 144.092 157.608 145.52C157.702 146.579 156.826 147.472 155.764 147.424L138.375 146.638C137.54 146.6 136.845 145.982 136.712 145.156Z" fill="#407BFF"/>
<path opacity="0.6" d="M136.712 145.156C136.556 144.195 137.202 143.29 138.162 143.132C141.68 142.551 149.676 141.375 153.701 141.932C156.691 142.346 157.482 144.092 157.608 145.52C157.702 146.579 156.826 147.472 155.764 147.424L138.375 146.638C137.54 146.6 136.845 145.982 136.712 145.156Z" fill="black"/>
<path d="M146.76 319.862L153.205 324.336L163.997 309.71L157.552 305.236L146.76 319.862Z" fill="#E58A7B"/>
<path d="M131.715 319.566L138.533 323.449L148.084 307.98L141.267 304.098L131.715 319.566Z" fill="#E58A7B"/>
<path d="M163.992 309.713L158.431 317.253L151.984 312.777L157.545 305.237L163.992 309.713Z" fill="#CF6F64"/>
<path d="M141.263 304.101L148.083 307.985L143.156 315.957L136.336 312.073L141.263 304.101Z" fill="#CF6F64"/>
<path d="M152.198 193.988C152.198 193.988 177.378 225.723 172.654 256.07C168.838 280.582 146.741 313.773 146.741 313.773L136.351 308.609C136.351 308.609 147.64 286.551 155.053 263.168C158.162 253.362 156.837 242.559 151.025 234.071C138.27 215.441 117.835 226.526 131.581 193.989L152.198 193.988Z" fill="#407BFF"/>
<path opacity="0.6" d="M152.198 193.988C152.198 193.988 177.378 225.723 172.654 256.07C168.838 280.582 146.741 313.773 146.741 313.773L136.351 308.609C136.351 308.609 147.64 286.551 155.053 263.168C158.162 253.362 156.837 242.559 151.025 234.071C138.27 215.441 117.835 226.526 131.581 193.989L152.198 193.988Z" fill="black"/>
<path opacity="0.4" d="M164.549 214.38L160.891 210.742C160.891 211.03 167.982 254.796 169.975 267.096C171.177 263.325 172.102 259.605 172.657 256.07C174.969 241.211 170.108 226.013 164.549 214.38Z" fill="black"/>
<path d="M163.444 193.988C163.444 193.988 193.763 233.868 194.616 257.783C195.331 277.821 161.591 316.528 161.591 316.528L151.796 310.191C151.796 310.191 171.525 282.674 176.492 260.18C174.598 237.915 133.95 193.987 133.95 193.987H163.444V193.988Z" fill="#407BFF"/>
<path opacity="0.6" d="M163.444 193.988C163.444 193.988 193.763 233.868 194.616 257.783C195.331 277.821 161.591 316.528 161.591 316.528L151.796 310.191C151.796 310.191 171.525 282.674 176.492 260.18C174.598 237.915 133.95 193.987 133.95 193.987H163.444V193.988Z" fill="black"/>
<path d="M125.933 146.41C122.686 147.176 119.583 158.963 119.583 158.963L132.246 167.416C132.246 167.416 136.466 158.1 134.993 154.019C133.458 149.769 130.033 145.443 125.933 146.41Z" fill="#407BFF"/>
<path opacity="0.2" d="M128.411 153.994L127.526 164.263L132.24 167.418C132.24 167.418 134.449 162.537 135.107 158.283L128.411 153.994Z" fill="black"/>
<path d="M167.193 146.637C167.193 146.637 170.93 147.953 163.444 193.988C150.8 193.988 137.733 193.988 131.581 193.988C132.116 181.02 132.131 173.023 125.933 146.41C125.933 146.41 132.609 144.958 139.463 144.627C144.825 144.369 149.218 144.197 153.932 144.628C160.146 145.195 167.193 146.637 167.193 146.637Z" fill="#407BFF"/>
<path d="M170.429 153.947C171.151 155.942 171.915 158.1 172.71 160.172C173.473 162.275 174.265 164.374 175.082 166.464L177.534 172.745L178.154 174.315L178.465 175.1L178.621 175.492C178.648 175.562 178.643 175.556 178.633 175.549C178.59 175.53 178.553 175.332 177.933 174.925C177.629 174.736 177.119 174.554 176.627 174.544C176.132 174.526 175.74 174.647 175.515 174.745C175.064 174.96 175.057 175.053 175.067 175.038C175.096 175.023 175.189 174.934 175.291 174.811C175.728 174.286 176.256 173.381 176.719 172.481C177.192 171.564 177.639 170.584 178.084 169.59C178.969 167.597 179.774 165.517 180.593 163.434C181.403 161.345 182.166 159.225 182.922 157.099L185.198 150.717L189.051 151.688C188.289 156.253 187.303 160.724 186.128 165.211C185.554 167.459 184.89 169.688 184.131 171.938C183.753 173.065 183.33 174.189 182.844 175.335C182.339 176.49 181.838 177.629 180.944 178.952C180.709 179.287 180.443 179.641 180.072 180.031C179.68 180.415 179.227 180.879 178.25 181.318C177.764 181.527 177.088 181.712 176.308 181.681C175.531 181.659 174.743 181.383 174.198 181.045C173.09 180.337 172.707 179.663 172.379 179.157C172.227 178.903 172.097 178.641 172.007 178.452L171.817 178.064L171.437 177.288L170.681 175.735C169.693 173.654 168.725 171.562 167.808 169.447C166.9 167.327 166.015 165.195 165.157 163.047C164.336 160.866 163.524 158.753 162.801 156.433L170.429 153.947Z" fill="#E58A7B"/>
<path d="M167.193 146.637C171.023 147.549 175.326 158.865 175.326 158.865L163.944 168.564C163.944 168.564 156.567 156.225 158.06 152.151C159.614 147.908 162.19 145.445 167.193 146.637Z" fill="#407BFF"/>
<path d="M186.976 147.189L190.971 143.848L193.75 148.177L191.703 151.792C191.703 151.792 188.443 154.776 185.557 153.258C184.625 151.145 185.204 148.671 186.976 147.189Z" fill="#E58A7B"/>
<path d="M198.222 143.858L197.923 144.947L191.594 146.01L190.97 143.848L198.222 143.858Z" fill="#E58A7B"/>
<path d="M162.402 317.053L150.983 309.667L153.028 306.111L165.861 314L162.402 317.053Z" fill="#407BFF"/>
<path d="M142.983 322.926C142.075 322.926 140.88 322.35 140.156 321.948C140.091 321.912 140.054 321.841 140.062 321.766C140.069 321.693 140.12 321.631 140.19 321.607C140.498 321.51 143.207 320.68 143.974 321.324C144.095 321.426 144.23 321.614 144.187 321.927C144.131 322.342 143.941 322.635 143.623 322.793C143.439 322.885 143.221 322.926 142.983 322.926ZM140.734 321.835C141.976 322.467 142.976 322.7 143.457 322.461C143.662 322.359 143.78 322.168 143.82 321.877C143.841 321.72 143.786 321.651 143.735 321.609C143.332 321.27 141.83 321.534 140.734 321.835Z" fill="#263238"/>
<path d="M140.247 321.97C140.197 321.97 140.149 321.95 140.114 321.914C140.068 321.866 140.051 321.798 140.069 321.734C140.095 321.642 140.719 319.47 141.746 318.975C142.02 318.844 142.298 318.837 142.57 318.95C143.002 319.132 143.045 319.448 143.03 319.619C142.96 320.518 141.127 321.76 140.291 321.964C140.277 321.968 140.262 321.97 140.247 321.97ZM142.185 319.243C142.093 319.243 142 319.266 141.906 319.311C141.294 319.606 140.78 320.778 140.534 321.491C141.414 321.121 142.615 320.139 142.658 319.591C142.665 319.502 142.645 319.386 142.424 319.294C142.345 319.26 142.265 319.243 142.185 319.243Z" fill="#263238"/>
<path d="M157.268 327.247C156.142 327.247 154.572 325.8 153.713 324.911C153.658 324.854 153.645 324.769 153.68 324.698C153.716 324.628 153.806 324.588 153.87 324.597C154.266 324.648 157.744 325.118 158.235 326.1C158.329 326.29 158.321 326.492 158.212 326.685C158.028 327.009 157.761 327.195 157.42 327.238C157.371 327.244 157.32 327.247 157.268 327.247ZM154.371 325.045C155.635 326.273 156.739 326.953 157.374 326.868C157.596 326.84 157.764 326.721 157.889 326.501C157.937 326.417 157.941 326.343 157.902 326.266C157.635 325.732 155.778 325.271 154.371 325.045Z" fill="#263238"/>
<path d="M154.481 325.014C154.224 325.014 153.994 324.998 153.813 324.964C153.749 324.952 153.695 324.907 153.672 324.846C153.65 324.784 153.661 324.714 153.703 324.663C153.76 324.594 155.113 322.963 156.391 322.851C156.791 322.82 157.13 322.926 157.42 323.174C157.813 323.511 157.786 323.811 157.694 324.003C157.377 324.669 155.649 325.014 154.481 325.014ZM154.223 324.639C155.34 324.701 157.126 324.33 157.359 323.843C157.379 323.802 157.438 323.678 157.179 323.457C156.963 323.272 156.713 323.195 156.424 323.221C155.585 323.295 154.648 324.185 154.223 324.639Z" fill="#263238"/>
<path d="M140.521 320.918L132.039 318.52C131.73 318.433 131.419 318.576 131.291 318.865L128.428 325.302C128.131 325.97 128.543 326.798 129.259 326.987C132.23 327.772 133.704 328.001 137.434 329.056C139.729 329.705 143.014 330.891 146.183 331.786C149.282 332.662 150.406 329.596 149.167 328.939C143.61 325.994 143.172 323.975 141.652 321.738C141.378 321.335 140.973 321.046 140.521 320.918Z" fill="#407BFF"/>
<path d="M153.944 323.743L146.704 318.716C146.44 318.533 146.1 318.568 145.884 318.799L141.082 323.955C140.584 324.49 140.705 325.407 141.32 325.818C143.874 327.527 145.194 328.223 148.378 330.434C150.337 331.794 154.247 334.81 156.952 336.688C159.598 338.525 161.658 335.991 160.7 334.967C156.404 330.375 155.456 327.497 154.747 324.886C154.618 324.416 154.329 324.01 153.944 323.743Z" fill="#407BFF"/>
<path d="M148.075 314.436L135.018 307.947L136.37 304.414L150.306 311.245L148.075 314.436Z" fill="#407BFF"/>
<path d="M131.104 192.118L129.999 194.97C129.887 195.191 130.149 195.417 130.518 195.417H163.601C163.888 195.417 164.126 195.276 164.144 195.096L164.431 192.244C164.451 192.046 164.202 191.879 163.888 191.879H131.622C131.386 191.879 131.176 191.976 131.104 192.118Z" fill="#407BFF"/>
<path opacity="0.4" d="M131.104 192.118L129.999 194.97C129.887 195.191 130.149 195.417 130.518 195.417H163.601C163.888 195.417 164.126 195.276 164.144 195.096L164.431 192.244C164.451 192.046 164.202 191.879 163.888 191.879H131.622C131.386 191.879 131.176 191.976 131.104 192.118Z" fill="white"/>
<path d="M136.307 195.726H135.443C135.271 195.726 135.14 195.637 135.152 195.529L135.557 191.824C135.569 191.716 135.719 191.627 135.892 191.627H136.756C136.928 191.627 137.059 191.716 137.047 191.824L136.642 195.529C136.63 195.638 136.479 195.726 136.307 195.726Z" fill="#407BFF"/>
<path d="M156.714 195.726H155.85C155.678 195.726 155.547 195.637 155.559 195.529L155.964 191.824C155.976 191.716 156.126 191.627 156.299 191.627H157.163C157.335 191.627 157.466 191.716 157.454 191.824L157.049 195.529C157.037 195.638 156.886 195.726 156.714 195.726Z" fill="#407BFF"/>
<path d="M135.546 365.087C150.342 365.087 162.337 364.217 162.337 363.143C162.337 362.069 150.342 361.199 135.546 361.199C120.75 361.199 108.755 362.069 108.755 363.143C108.755 364.217 120.75 365.087 135.546 365.087Z" fill="#F5F5F5"/>
<path d="M151.873 360.4C147.133 359.024 141.916 357.251 138.688 355.366C138.598 355.314 138.503 355.276 138.412 355.228V333.799H147.946C149.523 333.799 150.801 332.521 150.801 330.944C150.801 329.368 149.523 328.09 147.946 328.09H138.412V230.267H132.703V328.09H123.169C121.593 328.09 120.315 329.368 120.315 330.944C120.315 332.521 121.593 333.799 123.169 333.799H132.703V355.227C132.612 355.275 132.517 355.312 132.427 355.365C129.199 357.25 123.982 359.023 119.242 360.399C117.687 360.85 118.015 363.141 119.634 363.141H135.557H151.48C153.1 363.142 153.428 360.851 151.873 360.4Z" fill="#E0E0E0"/>
<path d="M153.34 241.247H117.775C114.926 241.247 112.595 238.916 112.595 236.067V225.494C112.595 222.645 114.926 220.314 117.775 220.314H153.34C156.189 220.314 158.52 222.645 158.52 225.494V236.067C158.52 238.916 156.189 241.247 153.34 241.247Z" fill="#407BFF"/>
<path d="M117.448 241.247V243.067C117.448 244.567 119.081 245.795 121.076 245.795H150.039C152.034 245.795 153.667 244.568 153.667 243.067V241.247H117.448Z" fill="#407BFF"/>
<path opacity="0.3" d="M117.448 241.247V243.067C117.448 244.567 119.081 245.795 121.076 245.795H150.039C152.034 245.795 153.667 244.568 153.667 243.067V241.247H117.448Z" fill="white"/>
</svg>
